<svg width="27" height="31" viewBox="0 0 27 31" fill="none" xmlns="http://www.w3.org/2000/svg">
<path d="M14.7948 0.0666084C18.773 0.648096 21.0331 2.6928 22.1305 6.70347C22.4375 7.82049 22.6532 9.05515 22.9602 11.4721C23.3588 14.5882 23.6133 15.8489 24.0708 16.9592C24.443 17.8541 24.75 18.3375 25.4491 19.0887C26.4028 20.1273 26.6446 21.2051 26.1611 22.2373C25.4623 23.7397 23.0257 24.7195 18.8775 25.1769L17.8325 25.2945L17.7868 25.8368C17.5908 28.2213 15.6248 30.0239 13.2339 30.0239C12.4891 30.0239 11.9471 29.9063 11.3136 29.6057C9.81758 28.9133 8.7986 27.463 8.67452 25.8432C8.62887 25.2357 8.73334 25.2945 7.5771 25.19C5.1666 24.9615 2.84126 24.3604 1.60016 23.6417C1.02542 23.3086 0.430756 22.7011 0.189339 22.2177C0.0193043 21.865 0 21.7603 0 21.1987C0 20.6108 0.013176 20.5519 0.241726 20.0881C0.391846 19.7811 0.666353 19.3957 0.953728 19.0755C1.56126 18.4028 1.94666 17.8084 2.26008 17.0504C2.7567 15.8614 3.0309 14.5811 3.39671 11.6351C3.78212 8.5714 4.01741 7.30426 4.4549 6.00434C4.984 4.41061 5.64392 3.30002 6.63012 2.32669C7.82557 1.15728 9.17788 0.510843 11.2354 0.125433C11.9729 -0.0118198 14.0173 -0.0442963 14.7948 0.0666084ZM11.3197 2.94739C8.90919 3.44401 7.64206 4.7568 6.92332 7.50707C6.64237 8.58488 6.49869 9.45374 6.20488 11.7662C6.0808 12.7723 5.91107 13.961 5.83908 14.4117C5.34919 17.3838 4.55876 19.2784 3.20645 20.7416L2.82104 21.1595L3.10842 21.3099C4.09492 21.8326 6.23736 22.2572 9.17696 22.5249C10.6598 22.6555 15.9967 22.6362 17.5384 22.4922C19.5895 22.2961 21.1964 22.0219 22.307 21.6886C22.8493 21.5185 23.4828 21.2379 23.4828 21.1659C23.4828 21.1463 23.3064 20.9177 23.091 20.6693C21.4905 18.8142 20.7981 16.8023 20.2494 12.3863C19.8836 9.44026 19.6551 8.10756 19.3285 7.04292C18.7078 4.99822 17.7216 3.82912 16.1147 3.2412C14.7621 2.75132 12.8742 2.63398 11.3197 2.94739ZM13.0703 25.4514H10.7253L10.7646 25.7388C10.8822 26.5813 11.4049 27.3129 12.169 27.6854C12.5675 27.8815 12.6524 27.9011 13.2272 27.9011C13.7759 27.9011 13.8935 27.8815 14.2529 27.7118C15.0105 27.3656 15.6116 26.5424 15.69 25.7323C15.7293 25.3665 15.7293 25.3665 15.5724 25.4057C15.4872 25.4318 14.3635 25.4514 13.0703 25.4514Z" fill="#62B47F"/>
</svg>
