<svg width="19" height="20" viewBox="0 0 19 20" fill="none" xmlns="http://www.w3.org/2000/svg">
<path d="M3.5127 11.062H0V14.4098H3.5127V11.062Z" fill="white"/>
<path d="M3.5127 7.16504H0V10.5128H3.5127V7.16504Z" fill="white"/>
<path d="M15.6613 3.26816V6.61955H14.3009C14.2797 6.5833 14.2607 6.54592 14.2441 6.5076C13.803 5.47332 13.7468 4.32626 14.0849 3.25732L15.6613 3.26816Z" fill="white"/>
<path d="M12.1484 11.5676V12.2213V12.9508V14.4134H13.4747H13.6187H15.6611V11.062H14.9942H14.3538H12.9101L12.1484 11.5676Z" fill="white"/>
<path d="M3.5127 3.26807H0V6.61584H3.5127V3.26807Z" fill="white"/>
<path d="M4.87674 14.4132H4.04688V11.8311C4.26837 12.707 4.5455 13.5693 4.87674 14.4132Z" fill="white"/>
<path d="M11.6104 11.9248V14.4131H8.09766V14.2506L8.12797 14.2289L10.8866 12.4051L11.5232 11.9826L11.6104 11.9248Z" fill="white"/>
<path d="M12.1486 11.5671L11.6105 11.9247L11.5234 11.9824L10.8868 12.405L8.12813 14.2287L8.09782 14.2504L5.54003 15.9478L5.09668 16.2439L5.66508 17.0204L5.77876 17.1757L5.79391 17.1648L6.05159 16.9951L9.7348 14.5502L9.94321 14.4129L11.4817 13.3909L11.6105 13.3042L12.1486 12.9503L12.4631 12.7408L14.2441 11.5599L14.9944 11.0615L16.4836 10.072L17.3362 9.50501L17.8401 9.17276L18.1281 8.98136L17.4461 8.05322L16.9421 8.38547L16.4836 8.69244L16.26 8.84051L14.282 10.1515L12.9102 11.0615L12.1486 11.5671Z" fill="white"/>
<path d="M12.91 11.0614L14.2818 10.1514L14.5395 10.2019L14.3538 11.0614L14.2439 11.5598L13.6186 14.4128L13.5808 14.5862L13.4292 15.2832L12.5197 15.1026L9.7346 14.5501L9.04873 14.4128L8.12793 14.2287L10.8866 12.4049L11.5232 11.9824L11.6103 11.9246L12.1484 11.567L12.91 11.0614Z" fill="white"/>
<path d="M16.5139 19.4295L15.4832 20.0001L12.5199 15.1031L11.6105 13.6043L11.4816 13.3913L10.8867 12.4053L11.5233 11.9828L11.6105 11.9359L11.8833 11.7842L12.1486 12.2212L12.4631 12.7412L13.4748 14.4133L13.5809 14.5866L16.5139 19.4295Z" fill="white"/>
<path d="M6.05149 16.9953C5.92644 16.7389 5.74456 16.385 5.53994 15.948C5.33531 15.511 5.10796 15.0018 4.87681 14.4132C4.54543 13.5681 4.2683 12.7045 4.04695 11.8274C3.74676 10.6343 3.56783 9.41646 3.51265 8.19069C3.51265 7.82955 3.4937 7.5009 3.51265 7.16504C3.56634 4.70623 4.09293 2.27768 5.06627 0C4.3814 1.02953 3.81237 2.12504 3.36866 3.26834C2.94879 4.34987 2.6639 5.47474 2.51985 6.61973C2.49712 6.8003 2.47817 6.98086 2.46301 7.16504C2.39872 7.89567 2.39872 8.63016 2.46301 9.36079C2.5009 9.75443 2.55396 10.1408 2.62595 10.5164C2.65627 10.7006 2.69416 10.8776 2.73584 11.0618C2.92378 11.8793 3.18364 12.6802 3.51265 13.4561C4.03816 14.7406 4.76375 15.9422 5.66498 17.0206L5.79382 17.165L6.05149 16.9953Z" fill="white"/>
<path d="M17.9167 9.16665C17.6325 8.93913 17.3361 8.138 17.3361 8.138C17.3361 8.138 16.4016 8.08277 16.25 7.91665C15.8931 7.51687 15.813 7.07963 15.5476 6.61969C15.3632 6.29722 15.2085 5.96009 15.0853 5.6121C14.8227 4.85743 14.7134 4.06197 14.7632 3.2683C14.8226 2.38609 15.0232 1.51773 15.3581 0.693359C14.7964 1.48368 14.3669 2.35235 14.0849 3.2683C13.7468 4.33723 13.803 5.48429 14.2441 6.51857C14.2607 6.5569 14.2797 6.59427 14.3009 6.63052C14.753 7.51274 15.4258 8.27547 16.26 8.85154L16.4835 9.00683C16.7577 9.19135 17.0424 9.36135 17.3361 9.51604L17.9167 9.16665Z" fill="white"/>
<path d="M6.96106 3.10596C6.67307 3.10596 6.68823 4.05937 5.92658 4.59386C5.16492 5.12835 4.25549 4.86832 4.23275 5.05612C4.21002 5.24391 5.36955 5.2728 6.07436 6.09621C6.57076 6.6957 6.52529 7.39632 6.75644 7.39632C6.98758 7.39632 6.92696 6.74626 7.43851 6.29123C8.09407 5.70618 9.08308 5.96981 9.14371 5.70618C9.20433 5.44255 8.25322 5.34503 7.62798 4.53607C7.124 3.83907 7.20737 3.12401 6.96106 3.10596Z" fill="white"/>
<path d="M8.59049 1.37939C8.45029 1.37939 8.45787 1.85249 8.07894 2.10168C7.70001 2.35086 7.25666 2.23892 7.2415 2.33281C7.22634 2.42671 7.81369 2.43754 8.15094 2.84563C8.39724 3.14176 8.37829 3.48846 8.49197 3.48846C8.60565 3.48846 8.57534 3.16705 8.82922 2.94314C9.15131 2.65062 9.64393 2.78423 9.67045 2.65422C9.69698 2.52421 9.23089 2.47005 8.91259 2.07279C8.66628 1.74415 8.71175 1.39023 8.59049 1.37939Z" fill="white"/>
</svg>
