<svg width="17" height="13" viewBox="0 0 17 13" fill="none" xmlns="http://www.w3.org/2000/svg">
<path d="M6.625 11.125C6.625 11.6428 7.04473 12.0625 7.5625 12.0625H9.4375C9.95527 12.0625 10.375 11.6428 10.375 11.125C10.375 10.6072 9.95527 10.1875 9.4375 10.1875H7.5625C7.04473 10.1875 6.625 10.6072 6.625 11.125ZM1 0.8125C0.482233 0.8125 0.0625 1.23223 0.0625 1.75C0.0625 2.26777 0.482233 2.6875 1 2.6875H16C16.5178 2.6875 16.9375 2.26777 16.9375 1.75C16.9375 1.23223 16.5178 0.8125 16 0.8125H1ZM2.875 6.4375C2.875 6.95527 3.29473 7.375 3.8125 7.375H13.1875C13.7053 7.375 14.125 6.95527 14.125 6.4375C14.125 5.91973 13.7053 5.5 13.1875 5.5H3.8125C3.29473 5.5 2.875 5.91973 2.875 6.4375Z" fill="#0C9136"/>
</svg>
