<svg width="16" height="18" viewBox="0 0 16 18" fill="none" xmlns="http://www.w3.org/2000/svg">
<path d="M5.61223 16.311V13.7629C5.61223 13.1124 6.14339 12.5851 6.79861 12.5851H9.19376C9.50841 12.5851 9.81017 12.7092 10.0327 12.9301C10.2551 13.1509 10.3801 13.4505 10.3801 13.7629V16.311C10.3782 16.5814 10.485 16.8414 10.6769 17.0333C10.8688 17.2252 11.13 17.3332 11.4024 17.3332H13.0364C13.7996 17.3351 14.5322 17.0355 15.0726 16.5005C15.6129 15.9655 15.9166 15.239 15.9166 14.4814V7.22222C15.9166 6.61022 15.6433 6.02971 15.1704 5.63706L9.61161 1.22973C8.64464 0.456972 7.25918 0.481922 6.32108 1.28899L0.889095 5.63706C0.393869 6.01813 0.0978789 6.60037 0.083252 7.22222V14.474C0.083252 16.053 1.37274 17.3332 2.9634 17.3332H4.56016C5.12594 17.3332 5.58575 16.88 5.58985 16.3184L5.61223 16.311Z" fill="#62B47F"/>
</svg>
