<svg width="10" height="10" viewBox="0 0 10 10" fill="none" xmlns="http://www.w3.org/2000/svg">
<path d="M7.79388 1.96714C7.87041 1.9561 7.94388 1.95058 8.01531 1.95058C9.10918 1.95058 10 2.91429 10 4.09877C10 5.28325 9.1102 6.24695 8.01531 6.24695H2.90714H2.18776C0.981633 6.24695 0 5.185 0 3.87909C0 2.41864 1.22245 1.22532 2.62755 1.56643C3.1398 0.606039 4.09388 0 5.12347 0C6.31735 0 7.35918 0.77935 7.79388 1.96714Z" fill="#AEE1FF"/>
<path d="M6.41453 6.60964C6.39285 6.60426 6.37117 6.60156 6.35043 6.60156C6.24013 6.60156 6.13832 6.67336 6.10721 6.78016L5.98466 7.2262L5.83854 7.75661L5.78481 7.95225C5.74993 8.0797 5.82911 8.21073 5.96298 8.24393C5.98466 8.24932 6.0054 8.25201 6.02708 8.25201C6.13832 8.25201 6.23919 8.18111 6.2703 8.07341L6.35797 7.75661L6.50409 7.2262L6.59364 6.90132C6.62852 6.77388 6.54839 6.64374 6.41453 6.60964Z" fill="#AEE1FF"/>
<path d="M5.12789 6.6115C5.10442 6.60487 5.08095 6.60156 5.05748 6.60156C4.93606 6.60156 4.82891 6.68987 4.79728 6.82124L4.49116 8.08299L4.33197 8.73539L4.13503 9.54676C4.09728 9.70351 4.18299 9.86468 4.32789 9.90552C4.35136 9.91215 4.37483 9.91546 4.39728 9.91546C4.51769 9.91546 4.62687 9.82825 4.65952 9.69578L4.8932 8.73539L5.05238 8.08299L5.32279 6.97026C5.36055 6.81351 5.27279 6.65345 5.12789 6.6115Z" fill="#AEE1FF"/>
<path d="M3.99239 6.6115C3.96994 6.60487 3.94647 6.60156 3.923 6.60156C3.80361 6.60156 3.69341 6.68987 3.66075 6.82124L3.52708 7.36987L3.3679 8.02228L3.30973 8.26293C3.27198 8.41968 3.35871 8.58085 3.50463 8.62169C3.52708 8.62832 3.55055 8.63163 3.573 8.63163C3.69443 8.63163 3.80463 8.54442 3.83626 8.41195L3.93116 8.02228L4.09035 7.36987L4.18728 6.97026C4.22402 6.81351 4.13626 6.65345 3.99239 6.6115Z" fill="#AEE1FF"/>
</svg>
