<svg width="23" height="23" viewBox="0 0 23 23" fill="none" xmlns="http://www.w3.org/2000/svg">
<path d="M17.8113 16.1681L22.4512 20.8069L20.9183 22.3398L16.2794 17.6999C14.5534 19.0836 12.4065 19.8362 10.1943 19.833C4.81234 19.833 0.444336 15.465 0.444336 10.083C0.444336 4.70101 4.81234 0.333008 10.1943 0.333008C15.5763 0.333008 19.9443 4.70101 19.9443 10.083C19.9475 12.2952 19.1949 14.4421 17.8113 16.1681ZM15.6381 15.3643C17.013 13.9504 17.7808 12.0551 17.7777 10.083C17.7777 5.89267 14.3836 2.49967 10.1943 2.49967C6.004 2.49967 2.611 5.89267 2.611 10.083C2.611 14.2723 6.004 17.6663 10.1943 17.6663C12.1665 17.6694 14.0617 16.9016 15.4756 15.5268L15.6381 15.3643Z" fill="#62B47F"/>
</svg>
