<svg width="16" height="16" viewBox="0 0 16 16" fill="none" xmlns="http://www.w3.org/2000/svg">
<path d="M2.44176 0.725726C2.9618 0.540204 3.52382 0.506106 4.06248 0.627394C4.60113 0.748683 5.0943 1.02038 5.48463 1.41089C5.87497 1.8014 6.14644 2.29468 6.26749 2.83339C6.38853 3.3721 6.35418 3.9341 6.16843 4.45406L15.2059 13.4916L13.4376 15.2591L4.4001 6.22239C3.88006 6.40791 3.31804 6.44201 2.77938 6.32073C2.24073 6.19944 1.74756 5.92774 1.35723 5.53723C0.966894 5.14672 0.695421 4.65344 0.574374 4.11473C0.453326 3.57602 0.487676 3.01402 0.67343 2.49406L2.53676 4.35823C2.65207 4.47761 2.79 4.57284 2.94251 4.63835C3.09501 4.70386 3.25904 4.73835 3.42501 4.73979C3.59099 4.74123 3.75559 4.7096 3.90921 4.64675C4.06283 4.5839 4.20239 4.49109 4.31976 4.37372C4.43712 4.25635 4.52994 4.11679 4.59279 3.96317C4.65564 3.80955 4.68727 3.64495 4.68583 3.47897C4.68438 3.313 4.6499 3.14898 4.58439 2.99647C4.51888 2.84397 4.42365 2.70603 4.30426 2.59073L2.44093 0.724893L2.44176 0.725726ZM11.0809 2.29573L13.7326 0.822393L14.9109 2.00073L13.4376 4.65239L11.9643 4.94739L10.1976 6.71489L9.01843 5.53656L10.7859 3.76906L11.0809 2.29573ZM5.18843 8.77739L6.95593 10.5457L2.83093 14.6707C2.60346 14.8961 2.29819 15.0255 1.97808 15.0324C1.65797 15.0393 1.34742 14.9231 1.11047 14.7077C0.873531 14.4924 0.728261 14.1943 0.704623 13.875C0.680985 13.5557 0.78078 13.2395 0.98343 12.9916L1.06426 12.9024L5.18926 8.77739H5.18843Z" fill="white"/>
</svg>
