<svg width="9" height="9" viewBox="0 0 9 9" fill="none" xmlns="http://www.w3.org/2000/svg">
<path d="M3.54167 6.24909H0.833333V5.41576H3.54167C3.80781 5.41586 4.06886 5.48878 4.29652 5.62664C4.52418 5.76449 4.70977 5.96202 4.83319 6.19781C4.95661 6.43361 5.01315 6.69869 4.99669 6.96432C4.98022 7.22996 4.89137 7.48602 4.73978 7.70477C4.58818 7.92352 4.37961 8.09661 4.13666 8.2053C3.89372 8.31398 3.62567 8.3541 3.36155 8.32133C3.09743 8.28855 2.84732 8.18412 2.63831 8.01935C2.4293 7.85459 2.26936 7.63576 2.17583 7.38659L2.95625 7.09368C2.99632 7.20047 3.06486 7.29426 3.15443 7.36488C3.244 7.43551 3.35119 7.48027 3.46438 7.49433C3.57757 7.50839 3.69246 7.4912 3.79658 7.44463C3.9007 7.39806 3.9901 7.32389 4.05508 7.23014C4.12005 7.1364 4.15814 7.02666 4.16521 6.91281C4.17227 6.79897 4.14805 6.68536 4.09516 6.5843C4.04227 6.48324 3.96274 6.39858 3.86517 6.33949C3.76761 6.2804 3.65573 6.24914 3.54167 6.24909ZM1.25 3.74909H6.875C7.14115 3.74919 7.40219 3.82212 7.62985 3.95997C7.85751 4.09782 8.04311 4.29535 8.16653 4.53115C8.28995 4.76695 8.34649 5.03202 8.33002 5.29766C8.31355 5.56329 8.22471 5.81936 8.07311 6.03811C7.92151 6.25685 7.71294 6.42995 7.47 6.53863C7.22705 6.64731 6.959 6.68744 6.69488 6.65466C6.43076 6.62188 6.18065 6.51745 5.97164 6.35269C5.76263 6.18792 5.6027 5.9691 5.50917 5.71993L6.28958 5.42701C6.32966 5.5338 6.39819 5.62759 6.48776 5.69822C6.57733 5.76884 6.68452 5.81361 6.79771 5.82766C6.91091 5.84172 7.02579 5.82453 7.12991 5.77796C7.23404 5.7314 7.32343 5.65722 7.38841 5.56347C7.45339 5.46973 7.49147 5.35999 7.49854 5.24614C7.50561 5.1323 7.48138 5.01869 7.42849 4.91763C7.37561 4.81657 7.29607 4.73191 7.1985 4.67282C7.10094 4.61374 6.98906 4.58248 6.875 4.58243H1.25C0.918479 4.58243 0.600537 4.45073 0.366117 4.21631C0.131696 3.98189 0 3.66395 0 3.33243C0 3.00091 0.131696 2.68297 0.366117 2.44854C0.600537 2.21412 0.918479 2.08243 1.25 2.08243H4.79167C4.90573 2.08238 5.01761 2.05112 5.11517 1.99203C5.21274 1.93294 5.29227 1.84828 5.34516 1.74722C5.39805 1.64616 5.42227 1.53256 5.41521 1.41871C5.40814 1.30487 5.37005 1.19513 5.30508 1.10138C5.2401 1.00764 5.1507 0.933461 5.04658 0.886892C4.94246 0.840323 4.82757 0.823136 4.71438 0.837193C4.60119 0.851251 4.494 0.896017 4.40443 0.966641C4.31486 1.03726 4.24632 1.13105 4.20625 1.23785L3.42583 0.945345C3.54603 0.625681 3.77457 0.35832 4.07164 0.189849C4.36871 0.0213784 4.71547 -0.0375233 5.05151 0.0234073C5.38755 0.084338 5.69155 0.261238 5.91056 0.523285C6.12957 0.785332 6.24969 1.11591 6.25 1.45743C6.25 1.8442 6.09635 2.21514 5.82286 2.48863C5.54937 2.76212 5.17844 2.91576 4.79167 2.91576H1.25C1.13949 2.91576 1.03351 2.95966 0.955372 3.0378C0.877232 3.11594 0.833333 3.22192 0.833333 3.33243C0.833333 3.44293 0.877232 3.54892 0.955372 3.62706C1.03351 3.7052 1.13949 3.74909 1.25 3.74909Z" fill="#2F81B1"/>
</svg>
